HIERARCHY
ROOT hip
{
	OFFSET 0.000000 0.000000 0.000000 
	CHANNELS 6 Xposition Yposition Zposition Xrotation Zrotation Yrotation
	JOINT abdomen
	{
		OFFSET 0.000000 3.402643 0.000000 
		CHANNELS 3 Xrotation Zrotation Yrotation
		JOINT chest
		{
			OFFSET 0.000000 8.438565 -0.680529 
			CHANNELS 3 Xrotation Zrotation Yrotation
			JOINT neck
			{
				OFFSET 0.000000 10.207942 -0.272212 
				CHANNELS 3 Xrotation Zrotation Yrotation
				JOINT head
				{
					OFFSET 0.000000 3.130431 0.000000 
					CHANNELS 3 Xrotation Zrotation Yrotation
					End Site
					{
						OFFSET 0.000000 3.130435 0.000000 
					}
				}
			}
			JOINT lCollar
			{
				OFFSET 3.470700 6.669187 -0.816635 
				CHANNELS 3 Yrotation Zrotation Xrotation
				JOINT lShldr
				{
					OFFSET 3.198488 0.000000 0.000000 
					CHANNELS 3 Zrotation Yrotation Xrotation
					JOINT lForeArm
					{
						OFFSET 10.139888 0.000000 0.000000 
						CHANNELS 3 Yrotation Zrotation Xrotation
						JOINT lHand
						{
							OFFSET 8.370511 0.000000 0.000000 
							CHANNELS 3 Zrotation Yrotation Xrotation
							End Site
							{
								OFFSET 4.083176 0.000000 0.000000 
							}
						}
					}
				}
			}
			JOINT rCollar
			{
				OFFSET -3.470700 6.669187 -0.816635 
				CHANNELS 3 Yrotation Zrotation Xrotation
				JOINT rShldr
				{
					OFFSET -3.198488 0.000000 0.000000 
					CHANNELS 3 Zrotation Yrotation Xrotation
					JOINT rForeArm
					{
						OFFSET -10.139888 0.000000 0.000000 
						CHANNELS 3 Yrotation Zrotation Xrotation
						JOINT rHand
						{
							OFFSET -8.370511 0.000000 0.000000 
							CHANNELS 3 Zrotation Yrotation Xrotation
							End Site
							{
								OFFSET -4.083176 0.000000 0.000000 
							}
						}
					}
				}
			}
		}
	}
	JOINT lThigh
	{
		OFFSET 5.308129 -1.633274 1.361059 
		CHANNELS 3 Xrotation Zrotation Yrotation
		JOINT lShin
		{
			OFFSET -2.041588 -20.007561 0.000000 
			CHANNELS 3 Xrotation Zrotation Yrotation
			JOINT lFoot
			{
				OFFSET 0.000000 -19.190928 -1.224953 
				CHANNELS 3 Xrotation Yrotation Zrotation
				End Site
				{
					OFFSET 0.000000 -2.449906 4.627600 
				}
			}
		}
	}
	JOINT rThigh
	{
		OFFSET -5.308129 -1.633274 1.361059 
		CHANNELS 3 Xrotation Zrotation Yrotation
		JOINT rShin
		{
			OFFSET 2.041588 -20.007561 0.000000 
			CHANNELS 3 Xrotation Zrotation Yrotation
			JOINT rFoot
			{
				OFFSET 0.000000 -19.190928 -1.224953 
				CHANNELS 3 Xrotation Yrotation Zrotation
				End Site
				{
					OFFSET 0.000000 -2.449906 4.627600 
				}
			}
		}
	}
}
MOTION
Frames: 14
Frame Time: 0.016667
2.470435 29.142118 0.406890 -10.198099 -13.261540 -23.696867 29.685919 14.987076 -11.999101 3.231040 0.760062 -5.625314 10.146593 9.819448 1.737517 14.823997 -10.692672 29.796556 -25.555206 -7.849112 -0.413734 -50.181507 -20.834581 10.189161 -90.796654 5.000000 0.684217 -5.207469 17.399874 -45.000000 11.277979 0.373133 -0.016953 80.230568 46.441040 45.000000 94.770668 -5.000000 1.152932 13.907484 -30.000000 -43.988449 -64.374542 47.978264 -7.991537 133.318863 -0.094354 -0.162369 -40.787720 5.311037 -12.558253 12.893409 2.898403 -4.768525 112.205612 -0.685789 1.773424 -28.455687 -26.165319 -7.332148 
2.449146 29.143497 0.413176 -10.202716 -13.235690 -23.685167 29.655600 14.931790 -12.023176 3.221403 0.760071 -5.615550 9.702619 9.424776 1.594232 13.781063 -11.341979 30.579313 -25.458710 -8.005165 -0.421779 -50.035324 -20.945198 10.282253 -90.735481 5.000000 0.627269 -5.186531 17.384768 -45.000000 11.287817 0.390727 -0.027537 80.257599 46.409023 45.000000 94.791580 -5.000000 1.158744 14.013545 -30.000000 -44.111767 -64.402748 47.928829 -8.090646 133.327454 -0.084464 -0.171422 -40.782955 5.391700 -12.609323 12.920305 2.916905 -4.772337 112.186821 -0.676571 1.765588 -28.403114 -26.212917 -7.295267 
2.429922 29.145897 0.417735 -10.188920 -13.244634 -23.685167 29.639957 14.901311 -12.024519 3.213440 0.730829 -5.595894 9.272501 9.040995 1.460742 12.793481 -11.856915 31.395607 -25.371849 -8.141711 -0.430199 -49.925594 -21.055950 10.409569 -90.721191 5.000000 0.615729 -5.249542 17.358597 -45.000000 11.258535 0.419989 -0.029051 80.319862 46.366493 45.000000 94.812256 -5.000000 1.174222 14.080950 -30.000000 -44.184216 -64.412979 47.875080 -8.246251 133.298660 -0.083111 -0.153202 -40.747089 5.366288 -12.692962 12.951866 2.976466 -4.808065 112.128349 -0.675855 1.760774 -28.416227 -26.303112 -7.316838 
2.411337 29.148996 0.421449 -10.173384 -13.263497 -23.677954 29.631887 14.880341 -12.023293 3.205486 0.701588 -5.586131 8.855735 8.658481 1.336892 11.825388 -12.335140 32.216270 -25.285011 -8.278257 -0.437256 -49.826546 -21.165546 10.539968 -90.722633 5.000000 0.622439 -5.324963 17.329111 -45.000000 11.219490 0.449254 -0.030564 80.385925 46.335251 45.000000 94.823257 -5.000000 1.190426 14.148114 -30.000000 -44.256565 -64.453583 47.846664 -8.427879 133.290451 -0.094492 -0.136643 -40.671753 5.332894 -12.783092 12.985224 3.026458 -4.845440 112.068504 -0.695492 1.765021 -28.427710 -26.313337 -7.304117 
2.391342 29.151562 0.426522 -10.178569 -13.261540 -23.696871 29.613897 14.826234 -12.025207 3.187594 0.682122 -5.537308 8.491180 8.277260 1.224135 10.881208 -12.778214 33.086159 -25.217567 -8.395295 -0.443303 -49.745239 -21.233942 10.641681 -90.691994 5.000000 0.605282 -5.360117 17.299517 -45.000000 11.238962 0.490164 -0.023002 80.387642 46.242325 45.000000 94.863556 -5.000000 1.211172 14.163566 -30.000000 -44.289066 -64.472946 47.841911 -8.655945 133.292709 -0.118012 -0.133492 -40.684116 5.287245 -12.991693 13.016065 3.065532 -4.825629 112.021889 -0.676630 1.729828 -28.418518 -26.334080 -7.332071 
2.370262 29.153812 0.432661 -10.194730 -13.238767 -23.746393 29.596621 14.727280 -12.036417 3.160143 0.662670 -5.478719 8.210802 7.909854 1.138660 9.963085 -13.186392 33.999599 -25.179279 -8.492826 -0.448340 -49.673687 -21.275007 10.733469 -90.644844 5.000000 0.579742 -5.360221 17.288784 -45.000000 11.317104 0.529175 -0.025018 80.318527 46.116467 45.000000 94.943893 -5.000000 1.236569 14.137869 -30.000000 -44.274235 -64.482391 47.841705 -8.925195 133.310394 -0.182442 -0.079940 -40.727177 5.242625 -13.406650 13.049505 3.073707 -4.761290 111.969460 -0.627856 1.632503 -28.441711 -26.293041 -7.353745 
2.348411 29.155413 0.439009 -10.213213 -13.216978 -23.784227 29.568924 14.628699 -12.048656 3.132146 0.652968 -5.420129 7.920613 7.531298 1.046447 9.037454 -13.579469 34.928196 -25.150761 -8.590352 -0.453374 -49.602341 -21.316387 10.825128 -90.597733 5.000000 0.546452 -5.350910 17.280430 -45.000000 11.405015 0.568185 -0.027035 80.253433 45.981754 45.000000 95.024048 -5.000000 1.261284 14.088087 -30.000000 -44.242897 -64.441452 47.845570 -9.163341 133.317688 -0.249210 -0.051666 -40.798847 5.206366 -13.813761 13.114804 3.075969 -4.705591 111.916672 -0.579105 1.544436 -28.486841 -26.264433 -7.417458 
2.325071 29.155508 0.444891 -10.215496 -13.217956 -23.772532 29.540964 14.557364 -12.088703 3.064518 0.643229 -5.381069 7.739306 7.296402 0.991280 8.292027 -13.877213 35.906868 -25.150045 -8.672522 -0.448660 -49.547512 -21.290131 10.871858 -90.549881 5.000000 0.504246 -5.240875 17.247183 -45.000000 11.463657 0.655959 -0.031571 80.182755 45.794472 45.000000 95.065506 -5.000000 1.247117 13.984797 -30.000000 -44.173557 -64.463387 47.797970 -9.439545 133.349823 -0.250661 0.015179 -40.912125 5.185693 -14.280312 13.180660 3.133869 -4.668709 111.819199 -0.519895 1.361278 -28.613493 -26.123672 -7.444783 
2.301598 29.155228 0.451068 -10.229825 -13.219913 -23.753614 29.513897 14.483179 -12.118249 3.007272 0.623744 -5.351772 7.548650 7.051826 0.937629 7.547401 -14.151544 36.899776 -25.160358 -8.740787 -0.452182 -49.503029 -21.262161 10.925734 -90.502136 5.000000 0.461491 -5.124406 17.215567 -45.000000 11.522300 0.733980 -0.035604 80.111885 45.617619 45.000000 95.117081 -5.000000 1.235906 13.857534 -30.000000 -44.081875 -64.501549 47.748802 -9.710912 133.373810 -0.269299 0.082150 -40.993847 5.188626 -14.751892 13.238464 3.182204 -4.634417 111.742287 -0.432657 1.190943 -28.741081 -25.942554 -7.466085 
2.280266 29.156191 0.458519 -10.238428 -13.212927 -23.732462 29.477972 14.408034 -12.150801 2.959785 0.604259 -5.312607 7.368356 6.807226 0.885197 6.809951 -14.446263 37.878960 -25.162119 -8.785398 -0.463434 -49.436329 -21.251646 10.970778 -90.423126 5.000000 0.390208 -5.017251 17.202677 -45.000000 11.561409 0.802248 -0.039132 80.092308 45.445251 45.000000 95.168831 -5.000000 1.255857 13.805310 -30.000000 -43.963306 -64.501648 47.729294 -9.941185 133.374191 -0.268459 0.089443 -41.075790 5.157331 -15.106394 13.298072 3.221874 -4.601594 111.660736 -0.382946 1.089871 -28.861668 -25.855690 -7.471134 
2.261284 29.158594 0.467404 -10.239015 -13.196021 -23.720770 29.426935 14.353955 -12.185605 2.942722 0.565274 -5.302846 7.208045 6.552946 0.834207 6.077654 -14.754773 38.837837 -25.162439 -8.824406 -0.465445 -49.365047 -21.262316 11.008311 -90.344170 5.000000 0.314802 -4.943502 17.211866 -45.000000 11.580984 0.860764 -0.042157 80.142365 45.262863 45.000000 95.241035 -5.000000 1.307477 13.809425 -30.000000 -43.828339 -64.534790 47.672710 -10.157355 133.395950 -0.289579 0.096441 -41.125080 5.126990 -15.388073 13.353730 3.230348 -4.564710 111.575180 -0.354545 1.064588 -28.908934 -25.825529 -7.440639 
2.242803 29.160421 0.476963 -10.251635 -13.180085 -23.699617 29.380239 14.292161 -12.201658 2.934899 0.536042 -5.273554 7.048348 6.298643 0.782132 5.364918 -15.033021 39.796894 -25.141775 -8.857816 -0.458220 -49.301147 -21.278673 11.047177 -90.249596 5.000000 0.224895 -4.856866 17.234344 -45.000000 11.600547 0.899774 -0.044173 80.206482 45.074425 45.000000 95.303886 -5.000000 1.362157 13.804616 -30.000000 -43.681747 -64.530472 47.655766 -10.363236 133.419342 -0.336014 0.084056 -41.199123 5.102664 -15.616104 13.406866 3.260988 -4.554100 111.508781 -0.334907 1.037286 -28.926664 -25.805511 -7.431924 
2.223655 29.160418 0.487515 -10.306252 -13.161229 -23.706854 29.376404 14.179461 -12.214948 2.964901 0.526301 -5.254024 6.829520 6.033220 0.723015 4.738759 -15.232908 40.691895 -25.073334 -8.848063 -0.457717 -49.240517 -21.367579 11.101893 -90.170700 5.000000 0.159967 -4.778851 17.335583 -45.000000 11.639759 0.897804 -0.053737 80.358093 44.890724 45.000000 95.388145 -5.000000 1.430967 13.795487 -30.000000 -43.547604 -64.412506 47.660423 -10.457391 133.423615 -0.366217 0.116616 -41.305016 5.048104 -15.810445 13.474398 3.260849 -4.517726 111.511330 -0.315299 0.998194 -28.939539 -25.798950 -7.406206 
2.205478 29.160063 0.498213 -10.370641 -13.142378 -23.716314 29.388678 14.078903 -12.236329 2.994198 0.526301 -5.254024 6.611408 5.767774 0.663882 4.139087 -15.402984 41.565403 -25.004894 -8.838310 -0.457214 -49.188545 -21.468353 11.158129 -90.091942 5.000000 0.096369 -4.699187 17.457039 -45.000000 11.678813 0.888045 -0.053231 80.531418 44.703720 45.000000 95.472717 -5.000000 1.505504 13.777191 -30.000000 -43.407673 -64.310112 47.662937 -10.558527 133.441605 -0.435657 0.157762 -41.400745 4.956757 -16.000750 13.546511 3.239682 -4.484420 111.532661 -0.314616 0.953572 -28.981441 -25.667646 -7.344323 
